# xmcd
#
# Track frame offsets:
#	150
#	28880
#	52280
#	91512
#	96712
#	126060
#	169682
#	238337
#	263287
#
# Disc length: 4205 seconds
#
# Revision: 1
# Processed by: cddbd v1.5.2PL0 Copyright (c) Steve Scherf et al.
# Submitted via: audiograbber 1.83.01
#
DISCID=77106b09
DTITLE=Blues Traveller - Independence Day - Set One
DYEAR=1996
DGENRE=Blues
TTITLE0=But Anyway
TTITLE1=New York Prophesie
TTITLE2=Support Your Local Emperor
TTITLE3=Happy Birthday
TTITLE4=Stand
TTITLE5=Mulling It Over
TTITLE6=Crystal Flame
TTITLE7=Gunfighter
TTITLE8=Brother John
EXTD=
EXTT0=
EXTT1=
EXTT2=
EXTT3=
EXTT4=
EXTT5=
EXTT6=
EXTT7=
EXTT8=
PLAYORDER=
